<svg xmlns="http://www.w3.org/2000/svg" xmlns:xlink="http://www.w3.org/1999/xlink" width="4000" zoomAndPan="magnify" viewBox="0 0 3000 899.99999" height="1200" preserveAspectRatio="xMidYMid meet" version="1.0"><defs><g/><clipPath id="eec396e335"><rect x="0" width="2103" y="0" height="646"/></clipPath></defs><g transform="matrix(1, 0, 0, 1, 897, 123)"><g clip-path="url(#eec396e335)"><g fill="#ffffff" fill-opacity="1"><g transform="translate(0.637293, 506.71707)"><g><path d="M 241.21875 2.8125 C 235.582031 2.8125 231.640625 0.9375 229.390625 -2.8125 L 102.578125 -289.6875 L 100.890625 -289.6875 L 102.015625 -65.9375 C 102.390625 -55.789062 103.140625 -47.992188 104.265625 -42.546875 C 105.390625 -37.097656 108.488281 -32.398438 113.5625 -28.453125 C 118.632812 -24.515625 126.617188 -22.546875 137.515625 -22.546875 L 140.90625 -22.546875 C 144.65625 -22.546875 147.375 -21.882812 149.0625 -20.5625 C 150.757812 -19.25 151.796875 -15.960938 152.171875 -10.703125 C 152.171875 -7.328125 151.328125 -4.414062 149.640625 -1.96875 C 147.953125 0.46875 145.414062 1.6875 142.03125 1.6875 L 127.9375 1.125 C 110.65625 0.375 98.253906 0 90.734375 0 C 77.960938 0 59.363281 0.5625 34.9375 1.6875 C 31.5625 1.6875 29.023438 0.46875 27.328125 -1.96875 C 25.640625 -4.414062 24.796875 -7.328125 24.796875 -10.703125 C 25.171875 -16.335938 26.296875 -19.71875 28.171875 -20.84375 C 30.054688 -21.976562 33.628906 -22.546875 38.890625 -22.546875 C 49.785156 -22.546875 57.769531 -24.515625 62.84375 -28.453125 C 67.914062 -32.398438 71.015625 -37.097656 72.140625 -42.546875 C 73.265625 -47.992188 74.015625 -55.789062 74.390625 -65.9375 L 75.53125 -289.6875 C 75.53125 -301.34375 74.210938 -310.082031 71.578125 -315.90625 C 68.953125 -321.726562 65.101562 -325.859375 60.03125 -328.296875 C 54.957031 -330.742188 47.535156 -332.90625 37.765625 -334.78125 C 36.253906 -335.15625 33.992188 -335.625 30.984375 -336.1875 C 27.984375 -336.75 26.015625 -337.875 25.078125 -339.5625 C 24.140625 -341.257812 23.671875 -343.988281 23.671875 -347.75 C 23.671875 -352.257812 24.890625 -355.265625 27.328125 -356.765625 C 29.773438 -358.265625 33.628906 -359.015625 38.890625 -359.015625 C 61.054688 -359.015625 79.273438 -357.601562 93.546875 -354.78125 C 107.828125 -351.96875 120.320312 -346.238281 131.03125 -337.59375 C 141.75 -328.957031 150.675781 -316.1875 157.8125 -299.28125 L 254.75 -81.71875 L 256.4375 -81.71875 L 367.46875 -355.640625 L 399.59375 -355.640625 C 420.257812 -355.640625 442.617188 -356.203125 466.671875 -357.328125 C 470.046875 -357.328125 472.578125 -356.101562 474.265625 -353.65625 C 475.960938 -351.21875 476.8125 -348.304688 476.8125 -344.921875 C 476.4375 -339.285156 475.210938 -335.90625 473.140625 -334.78125 C 471.078125 -333.65625 467.601562 -333.09375 462.71875 -333.09375 C 451.820312 -333.09375 443.742188 -331.117188 438.484375 -327.171875 C 433.222656 -323.222656 429.9375 -318.335938 428.625 -312.515625 C 427.3125 -306.691406 426.46875 -299.082031 426.09375 -289.6875 L 426.09375 -65.9375 C 426.46875 -56.550781 427.3125 -48.941406 428.625 -43.109375 C 429.9375 -37.285156 433.222656 -32.398438 438.484375 -28.453125 C 443.742188 -24.515625 451.820312 -22.546875 462.71875 -22.546875 L 466.109375 -22.546875 C 469.484375 -22.546875 472.015625 -21.882812 473.703125 -20.5625 C 475.398438 -19.25 476.4375 -15.960938 476.8125 -10.703125 C 476.8125 -7.328125 475.960938 -4.414062 474.265625 -1.96875 C 472.578125 0.46875 470.046875 1.6875 466.671875 1.6875 C 442.617188 0.5625 420.070312 0 399.03125 0 C 377.238281 0 354.132812 0.5625 329.71875 1.6875 C 326.332031 1.6875 323.789062 0.46875 322.09375 -1.96875 C 320.40625 -4.414062 319.5625 -7.328125 319.5625 -10.703125 C 319.9375 -16.335938 321.0625 -19.71875 322.9375 -20.84375 C 324.820312 -21.976562 328.394531 -22.546875 333.65625 -22.546875 C 344.550781 -22.546875 352.628906 -24.515625 357.890625 -28.453125 C 363.148438 -32.398438 366.4375 -37.285156 367.75 -43.109375 C 369.070312 -48.941406 369.921875 -56.550781 370.296875 -65.9375 L 370.296875 -289.6875 L 368.59375 -289.6875 L 252.5 -2.8125 C 251 0.9375 247.238281 2.8125 241.21875 2.8125 Z M 241.21875 2.8125 "/></g></g></g><g fill="#ffffff" fill-opacity="1"><g transform="translate(484.212935, 506.71707)"><g><path d="M 94.6875 6.765625 C 72.144531 6.765625 53.921875 0.378906 40.015625 -12.390625 C 26.109375 -25.171875 19.15625 -41.144531 19.15625 -60.3125 C 19.15625 -83.976562 27.046875 -101.726562 42.828125 -113.5625 C 58.609375 -125.40625 77.394531 -133.109375 99.1875 -136.671875 C 120.988281 -140.242188 149.171875 -142.96875 183.734375 -144.84375 L 183.734375 -189.375 C 183.734375 -207.78125 179.128906 -221.773438 169.921875 -231.359375 C 160.722656 -240.941406 145.976562 -245.734375 125.6875 -245.734375 C 114.039062 -245.734375 103.894531 -242.160156 95.25 -235.015625 C 86.601562 -227.878906 82.28125 -218.300781 82.28125 -206.28125 C 82.28125 -200.269531 83.6875 -195.289062 86.5 -191.34375 C 89.320312 -187.394531 92.332031 -184.101562 95.53125 -181.46875 C 98.726562 -178.84375 100.328125 -177.34375 100.328125 -176.96875 C 100.328125 -174.71875 97.976562 -171.804688 93.28125 -168.234375 C 88.582031 -164.671875 82.851562 -162.890625 76.09375 -162.890625 C 64.8125 -162.890625 55.882812 -167.019531 49.3125 -175.28125 C 42.738281 -183.550781 39.453125 -193.320312 39.453125 -204.59375 C 39.453125 -224.125 48.1875 -238.585938 65.65625 -247.984375 C 83.132812 -257.378906 104.269531 -262.078125 129.0625 -262.078125 C 159.875 -262.078125 184.953125 -256.253906 204.296875 -244.609375 C 223.648438 -232.960938 233.328125 -211.359375 233.328125 -179.796875 L 233.328125 -48.46875 C 233.703125 -40.582031 236.144531 -33.066406 240.65625 -25.921875 C 245.164062 -18.785156 252.492188 -15.21875 262.640625 -15.21875 C 265.648438 -15.21875 267.8125 -14.648438 269.125 -13.515625 C 270.4375 -12.390625 271.09375 -9.953125 271.09375 -6.203125 C 271.09375 -1.691406 267.617188 1.59375 260.671875 3.65625 C 253.722656 5.726562 246.863281 6.765625 240.09375 6.765625 C 225.820312 6.765625 213.234375 2.632812 202.328125 -5.625 C 191.429688 -13.894531 185.234375 -24.984375 183.734375 -38.890625 C 175.847656 -24.234375 163.726562 -12.957031 147.375 -5.0625 C 131.03125 2.820312 113.46875 6.765625 94.6875 6.765625 Z M 112.71875 -23.671875 C 125.5 -23.671875 137.335938 -26.863281 148.234375 -33.25 C 159.128906 -39.632812 167.769531 -48.367188 174.15625 -59.453125 C 180.539062 -70.546875 183.734375 -82.851562 183.734375 -96.375 L 183.734375 -128.5 C 144.285156 -125.5 116.484375 -119.113281 100.328125 -109.34375 C 84.171875 -99.570312 76.09375 -83.789062 76.09375 -62 C 76.09375 -36.445312 88.300781 -23.671875 112.71875 -23.671875 Z M 112.71875 -23.671875 "/></g></g></g><g fill="#ffffff" fill-opacity="1"><g transform="translate(763.7625, 506.71707)"><g><path d="M 27.609375 1.6875 C 24.984375 1.6875 22.820312 0.5625 21.125 -1.6875 C 19.4375 -3.945312 18.59375 -6.578125 18.59375 -9.578125 C 18.96875 -14.460938 20.09375 -17.375 21.96875 -18.3125 C 23.851562 -19.25 27.238281 -19.71875 32.125 -19.71875 C 41.894531 -19.71875 48.84375 -21.410156 52.96875 -24.796875 C 57.101562 -28.179688 59.453125 -32.125 60.015625 -36.625 C 60.585938 -41.132812 60.875 -48.273438 60.875 -58.046875 L 60.875 -187.125 C 60.875 -196.882812 60.585938 -204.019531 60.015625 -208.53125 C 59.453125 -213.039062 57.101562 -216.984375 52.96875 -220.359375 C 48.84375 -223.742188 41.894531 -225.4375 32.125 -225.4375 C 27.613281 -225.4375 24.226562 -226.09375 21.96875 -227.40625 C 19.71875 -228.726562 18.59375 -231.832031 18.59375 -236.71875 C 18.59375 -238.96875 19.34375 -241.125 20.84375 -243.1875 C 22.351562 -245.257812 24.609375 -246.484375 27.609375 -246.859375 C 52.035156 -250.617188 72.140625 -255.503906 87.921875 -261.515625 C 94.304688 -263.390625 98.628906 -264.515625 100.890625 -264.890625 L 102.578125 -264.890625 C 108.585938 -264.890625 111.59375 -261.320312 111.59375 -254.1875 L 111.59375 -218.6875 L 113.28125 -218.6875 C 124.175781 -228.820312 133.003906 -236.613281 139.765625 -242.0625 C 146.535156 -247.519531 155.273438 -252.21875 165.984375 -256.15625 C 176.691406 -260.101562 189.375 -262.078125 204.03125 -262.078125 C 229.582031 -262.078125 249.867188 -254.375 264.890625 -238.96875 C 279.921875 -223.5625 287.4375 -203.269531 287.4375 -178.09375 L 287.4375 -58.046875 C 287.4375 -48.273438 287.8125 -41.132812 288.5625 -36.625 C 289.3125 -32.125 291.753906 -28.179688 295.890625 -24.796875 C 300.023438 -21.410156 306.976562 -19.71875 316.75 -19.71875 L 320.125 -19.71875 C 323.132812 -19.71875 325.390625 -19.15625 326.890625 -18.03125 C 328.390625 -16.90625 329.332031 -14.085938 329.71875 -9.578125 C 329.71875 -6.578125 328.867188 -3.945312 327.171875 -1.6875 C 325.484375 0.5625 323.320312 1.6875 320.6875 1.6875 C 298.894531 0.5625 279.171875 0 261.515625 0 C 244.609375 0 225.070312 0.5625 202.90625 1.6875 C 200.269531 1.6875 198.101562 0.5625 196.40625 -1.6875 C 194.71875 -3.945312 193.875 -6.578125 193.875 -9.578125 C 194.25 -14.460938 195.28125 -17.375 196.96875 -18.3125 C 198.664062 -19.25 201.957031 -19.71875 206.84375 -19.71875 C 216.613281 -19.71875 223.5625 -21.410156 227.6875 -24.796875 C 231.820312 -28.179688 234.265625 -32.125 235.015625 -36.625 C 235.773438 -41.132812 236.15625 -48.273438 236.15625 -58.046875 L 236.15625 -177.53125 C 236.15625 -194.820312 230.707031 -208.066406 219.8125 -217.265625 C 208.914062 -226.472656 196.328125 -231.078125 182.046875 -231.078125 C 164.765625 -231.078125 149.921875 -226.847656 137.515625 -218.390625 C 125.117188 -209.941406 116.664062 -201.207031 112.15625 -192.1875 L 112.15625 -58.046875 C 112.15625 -48.273438 112.53125 -41.132812 113.28125 -36.625 C 114.03125 -32.125 116.472656 -28.179688 120.609375 -24.796875 C 124.742188 -21.410156 131.695312 -19.71875 141.46875 -19.71875 L 144.84375 -19.71875 C 147.851562 -19.71875 150.109375 -19.15625 151.609375 -18.03125 C 153.109375 -16.90625 154.046875 -14.085938 154.421875 -9.578125 C 154.421875 -6.578125 153.671875 -3.945312 152.171875 -1.6875 C 150.671875 0.5625 148.414062 1.6875 145.40625 1.6875 C 123.613281 0.5625 103.890625 0 86.234375 0 C 69.328125 0 49.785156 0.5625 27.609375 1.6875 Z M 27.609375 1.6875 "/></g></g></g><g fill="#ffffff" fill-opacity="1"><g transform="translate(1099.109332, 506.71707)"><g><path d="M 155 6.765625 C 126.8125 6.765625 102.851562 0.753906 83.125 -11.265625 C 63.40625 -23.296875 48.472656 -39.644531 38.328125 -60.3125 C 28.179688 -80.976562 23.109375 -103.894531 23.109375 -129.0625 C 23.109375 -151.226562 28.273438 -172.550781 38.609375 -193.03125 C 48.941406 -213.507812 63.6875 -230.132812 82.84375 -242.90625 C 102.007812 -255.6875 123.992188 -262.078125 148.796875 -262.078125 C 182.234375 -262.078125 207.96875 -253.53125 226 -236.4375 C 244.039062 -219.34375 254.375 -196.328125 257 -167.390625 C 257 -154.992188 253.617188 -146.539062 246.859375 -142.03125 C 240.097656 -137.519531 230.328125 -135.265625 217.546875 -135.265625 L 80.59375 -135.265625 C 80.59375 -100.316406 87.828125 -72.601562 102.296875 -52.125 C 116.765625 -31.65625 139.210938 -21.421875 169.640625 -21.421875 C 185.796875 -21.421875 199.507812 -24.894531 210.78125 -31.84375 C 222.0625 -38.789062 232.773438 -50.53125 242.921875 -67.0625 C 244.796875 -68.945312 246.671875 -69.890625 248.546875 -69.890625 C 251.179688 -69.890625 253.4375 -69.140625 255.3125 -67.640625 C 259.070312 -65.378906 260.953125 -61.992188 260.953125 -57.484375 C 260.953125 -55.234375 260.578125 -53.546875 259.828125 -52.421875 C 248.179688 -33.628906 233.429688 -19.066406 215.578125 -8.734375 C 197.734375 1.597656 177.539062 6.765625 155 6.765625 Z M 172.46875 -156.6875 C 191.625 -156.6875 201.769531 -164.578125 202.90625 -180.359375 C 202.90625 -197.640625 198.207031 -212.289062 188.8125 -224.3125 C 179.414062 -236.34375 166.078125 -242.359375 148.796875 -242.359375 C 129.628906 -242.359375 113.84375 -234.75 101.4375 -219.53125 C 89.039062 -204.3125 82.09375 -183.363281 80.59375 -156.6875 Z M 172.46875 -156.6875 "/></g></g><g transform="translate(1382.040554, 506.71707)"><g><path d="M 206.28125 11.265625 C 170.582031 11.265625 139.113281 2.71875 111.875 -14.375 C 84.632812 -31.46875 63.59375 -54.101562 48.75 -82.28125 C 33.90625 -110.46875 26.484375 -140.71875 26.484375 -173.03125 C 26.484375 -212.476562 35.40625 -246.851562 53.25 -276.15625 C 71.101562 -305.46875 93.929688 -327.921875 121.734375 -343.515625 C 149.546875 -359.109375 177.726562 -366.90625 206.28125 -366.90625 C 242.351562 -366.90625 274.195312 -358.359375 301.8125 -341.265625 C 329.425781 -324.171875 350.65625 -301.625 365.5 -273.625 C 380.34375 -245.632812 387.765625 -215.484375 387.765625 -183.171875 C 387.765625 -143.722656 378.742188 -109.25 360.703125 -79.75 C 342.671875 -50.25 319.5625 -27.703125 291.375 -12.109375 C 263.195312 3.472656 234.832031 11.265625 206.28125 11.265625 Z M 205.71875 -13.53125 C 231.269531 -13.53125 252.59375 -21.132812 269.6875 -36.34375 C 286.78125 -51.5625 299.550781 -72.039062 308 -97.78125 C 316.457031 -123.519531 320.6875 -151.984375 320.6875 -183.171875 C 320.6875 -212.109375 316.363281 -238.691406 307.71875 -262.921875 C 299.082031 -287.160156 286.125 -306.507812 268.84375 -320.96875 C 251.5625 -335.4375 230.519531 -342.671875 205.71875 -342.671875 C 168.144531 -342.671875 139.867188 -326.796875 120.890625 -295.046875 C 101.921875 -263.296875 92.4375 -223.1875 92.4375 -174.71875 C 92.4375 -145.40625 96.660156 -118.535156 105.109375 -94.109375 C 113.566406 -69.691406 126.25 -50.15625 143.15625 -35.5 C 160.0625 -20.851562 180.914062 -13.53125 205.71875 -13.53125 Z M 205.71875 -13.53125 "/></g></g></g><g fill="#ffffff" fill-opacity="1"><g transform="translate(1796.292541, 506.71707)"><g><path d="M 149.359375 11.265625 C 109.898438 11.265625 79.742188 4.410156 58.890625 -9.296875 C 38.035156 -23.015625 27.609375 -43.210938 27.609375 -69.890625 C 27.609375 -83.410156 32.210938 -94.585938 41.421875 -103.421875 C 50.628906 -112.253906 62.5625 -116.671875 77.21875 -116.671875 C 85.851562 -116.296875 92.425781 -114.132812 96.9375 -110.1875 C 101.445312 -106.238281 103.703125 -102.570312 103.703125 -99.1875 C 103.703125 -98.8125 101.820312 -97.5 98.0625 -95.25 C 94.3125 -93 90.929688 -89.617188 87.921875 -85.109375 C 84.921875 -80.597656 83.421875 -74.394531 83.421875 -66.5 C 83.421875 -48.84375 88.773438 -35.222656 99.484375 -25.640625 C 110.191406 -16.054688 126.816406 -11.265625 149.359375 -11.265625 C 164.765625 -11.265625 178.289062 -14.269531 189.9375 -20.28125 C 201.582031 -26.300781 210.503906 -34.285156 216.703125 -44.234375 C 222.898438 -54.191406 226 -64.625 226 -75.53125 C 226 -89.050781 222.148438 -100.695312 214.453125 -110.46875 C 206.753906 -120.238281 197.265625 -128.410156 185.984375 -134.984375 C 174.710938 -141.554688 159.3125 -149.164062 139.78125 -157.8125 C 117.226562 -167.957031 99 -177.160156 85.09375 -185.421875 C 71.195312 -193.691406 59.363281 -204.679688 49.59375 -218.390625 C 39.820312 -232.109375 34.9375 -249.113281 34.9375 -269.40625 C 34.9375 -302.09375 46.113281 -326.515625 68.46875 -342.671875 C 90.832031 -358.828125 120.238281 -366.90625 156.6875 -366.90625 C 185.238281 -366.90625 210.128906 -360.894531 231.359375 -348.875 C 252.585938 -336.851562 263.203125 -319.191406 263.203125 -295.890625 C 263.203125 -282.367188 258.597656 -271.191406 249.390625 -262.359375 C 240.191406 -253.523438 228.265625 -249.109375 213.609375 -249.109375 C 204.960938 -249.484375 198.382812 -251.644531 193.875 -255.59375 C 189.375 -259.539062 187.125 -263.207031 187.125 -266.59375 C 187.125 -266.96875 189.65625 -268.28125 194.71875 -270.53125 C 199.789062 -272.789062 204.300781 -276.171875 208.25 -280.671875 C 212.195312 -285.179688 214.171875 -291.382812 214.171875 -299.28125 C 214.171875 -313.175781 208.816406 -324.066406 198.109375 -331.953125 C 187.398438 -339.847656 173.78125 -343.796875 157.25 -343.796875 C 134.320312 -343.796875 116.941406 -338.441406 105.109375 -327.734375 C 93.273438 -317.023438 87.359375 -303.78125 87.359375 -288 C 87.359375 -274.851562 90.925781 -263.863281 98.0625 -255.03125 C 105.207031 -246.195312 116.671875 -237.460938 132.453125 -228.828125 C 145.222656 -222.066406 159.125 -215.300781 174.15625 -208.53125 C 198.195312 -197.632812 217.265625 -187.675781 231.359375 -178.65625 C 245.453125 -169.644531 257.285156 -157.8125 266.859375 -143.15625 C 276.441406 -128.5 281.234375 -110.273438 281.234375 -88.484375 C 281.234375 -69.703125 275.316406 -52.703125 263.484375 -37.484375 C 251.648438 -22.265625 235.679688 -10.332031 215.578125 -1.6875 C 195.472656 6.945312 173.398438 11.265625 149.359375 11.265625 Z M 149.359375 11.265625 "/></g></g></g></g></g><path fill="#ffffff" d="M 311.730469 871.453125 C 306.34375 870.90625 296.167969 869.808594 289.109375 869.011719 C 282.054688 868.21875 273.519531 866.757812 270.140625 865.765625 C 266.765625 864.773438 262.980469 863.050781 261.730469 861.9375 C 259.921875 860.332031 259.589844 858.78125 260.109375 854.386719 C 260.46875 851.34375 261.621094 846.386719 262.671875 843.371094 C 263.722656 840.355469 264.589844 836.433594 264.597656 834.65625 L 265.050781 831.234375 L 256.355469 829.796875 C 250.851562 828.882812 247.117188 827.191406 245.191406 825.28125 L 242.285156 822.398438 L 243.027344 817.296875 C 243.4375 814.488281 245.949219 806.332031 248.609375 799.167969 C 251.269531 792.003906 255.953125 781.15625 259.015625 775.058594 C 262.078125 768.964844 265.636719 761.332031 266.925781 758.101562 C 268.214844 754.875 271.855469 746.449219 275.019531 739.382812 C 278.183594 732.316406 282.417969 722.128906 284.429688 716.742188 C 286.441406 711.359375 289.183594 703.375 290.523438 699 C 291.867188 694.625 293.488281 689.117188 294.125 686.761719 C 294.761719 684.40625 295.832031 677.800781 296.503906 672.078125 C 297.171875 666.359375 298.246094 655.070312 298.890625 646.992188 C 299.53125 638.917969 300.585938 624.046875 301.226562 613.953125 C 301.871094 603.855469 302.78125 590.851562 303.253906 585.050781 L 304.113281 574.507812 L 295.773438 565.746094 C 291.1875 560.929688 286.238281 555.210938 284.773438 553.042969 C 283.304688 550.871094 280.128906 545.242188 277.710938 540.53125 C 275.292969 535.820312 272.484375 529.480469 271.464844 526.441406 C 270.445312 523.402344 268.789062 517.34375 267.789062 512.980469 C 266.789062 508.613281 265.152344 499.8125 264.15625 493.417969 C 263.164062 487.023438 261.949219 477.9375 261.460938 473.226562 C 260.976562 468.515625 260.523438 451.011719 260.457031 434.332031 C 260.363281 410.925781 259.972656 403.777344 258.75 403.019531 C 257.878906 402.480469 245.914062 402.300781 232.164062 402.617188 C 215.480469 403.003906 204.605469 402.707031 199.484375 401.726562 C 195.261719 400.921875 190.15625 399.757812 188.136719 399.140625 C 186.117188 398.527344 180.898438 396.832031 176.542969 395.371094 C 172.183594 393.914062 166.851562 391.984375 164.695312 391.082031 C 162.535156 390.179688 160.5 389.003906 160.167969 388.46875 C 159.839844 387.933594 161.410156 385.367188 163.664062 382.761719 C 165.914062 380.152344 168.707031 376.039062 169.867188 373.617188 C 171.027344 371.195312 172.542969 368.113281 173.230469 366.765625 C 173.921875 365.417969 174.902344 362.117188 175.414062 359.421875 C 175.921875 356.730469 176.042969 352.308594 175.683594 349.589844 C 175.320312 346.875 174.226562 343.570312 173.246094 342.25 L 171.464844 339.84375 L 168.792969 343.515625 C 167.320312 345.535156 164.742188 348.5 163.054688 350.105469 C 161.371094 351.710938 157.789062 354.039062 155.097656 355.28125 C 151.53125 356.921875 147.261719 357.542969 139.375 357.5625 C 133.054688 357.574219 125.785156 356.785156 121.902344 355.65625 C 117.929688 354.5 114.566406 352.652344 113.546875 351.066406 C 112.605469 349.605469 110.695312 344.984375 109.300781 340.800781 C 107.902344 336.617188 106.761719 330.949219 106.761719 328.210938 C 106.761719 325.46875 107.871094 321.046875 109.230469 318.386719 C 111.183594 314.558594 113.429688 312.667969 119.9375 309.378906 C 124.46875 307.089844 129.488281 303.804688 131.097656 302.082031 L 134.015625 298.949219 L 133.128906 293.699219 C 132.640625 290.8125 131.695312 285.144531 131.03125 281.105469 C 130.363281 277.070312 129.546875 262.339844 129.214844 248.375 C 128.742188 228.488281 128.261719 222.980469 126.996094 222.980469 C 126.109375 222.980469 120.03125 224.082031 113.492188 225.429688 C 106.949219 226.773438 98.328125 227.875 94.335938 227.875 C 90.34375 227.875 82.832031 227.023438 77.644531 225.980469 C 72.457031 224.941406 62.980469 222.382812 56.589844 220.300781 C 50.195312 218.21875 40.832031 214.417969 35.785156 211.855469 C 30.738281 209.289062 23.382812 203.070312 23.214844 202.832031 L 19.089844 197.0625 L 15.960938 190.496094 C 15.507812 189.546875 20.5625 190.765625 24.921875 190.792969 C 27.671875 190.8125 34.410156 190.460938 39.457031 189.925781 C 44.503906 189.390625 50.285156 188.582031 52.304688 188.132812 C 54.324219 187.679688 57.078125 186.871094 58.421875 186.332031 C 59.769531 185.796875 63.605469 184.046875 66.945312 182.449219 C 70.289062 180.847656 76.566406 176.234375 80.898438 172.199219 C 85.226562 168.160156 92.011719 160.496094 95.972656 155.167969 C 100.933594 148.496094 102.78125 145.089844 101.90625 144.21875 C 101.035156 143.34375 98.429688 143.410156 93.53125 144.421875 C 89.621094 145.226562 84.347656 145.441406 81.90625 145.886719 C 79.289062 146.367188 78.902344 145.960938 77.640625 146.25 C 77.058594 146.386719 79.171875 141.175781 81.34375 137.890625 C 83.519531 134.609375 88.613281 128.738281 92.664062 124.84375 C 96.714844 120.949219 103.332031 115.285156 107.371094 112.257812 C 111.410156 109.230469 116.375 105.957031 118.40625 104.984375 C 120.433594 104.011719 124.011719 101.941406 126.359375 100.382812 C 128.703125 98.828125 132 96.832031 133.679688 95.953125 C 135.363281 95.074219 137.839844 93.539062 139.183594 92.542969 L 141.625 90.726562 L 139.792969 89.570312 C 138.789062 88.933594 136.585938 88.414062 134.90625 88.414062 C 133.222656 88.417969 127.164062 88.925781 121.445312 89.542969 C 115.722656 90.164062 105.910156 91.261719 99.640625 91.992188 C 93.371094 92.71875 87.667969 92.960938 86.972656 92.527344 C 86.261719 92.089844 89.9375 87.460938 95.3125 82.019531 C 100.597656 76.671875 109.605469 69.148438 115.324219 65.304688 C 121.046875 61.457031 131.257812 55.472656 138.015625 52.003906 C 144.777344 48.535156 154.414062 44.34375 159.429688 42.683594 C 164.449219 41.027344 174.0625 38.378906 180.792969 36.800781 L 193.03125 33.933594 L 214.445312 33.925781 C 228.601562 33.921875 237.726562 34.46875 241.367188 35.535156 C 244.394531 36.425781 250.453125 38.253906 254.828125 39.597656 C 259.203125 40.945312 265.117188 43.109375 267.96875 44.40625 C 270.820312 45.707031 273.597656 46.769531 274.140625 46.769531 C 274.683594 46.769531 279.785156 49.117188 285.472656 51.988281 C 291.164062 54.855469 300.308594 59.882812 305.789062 63.160156 C 311.273438 66.433594 320.359375 72.578125 325.980469 76.816406 C 331.605469 81.050781 339.121094 86.855469 342.6875 89.714844 L 349.167969 94.917969 L 357.144531 86.902344 C 361.53125 82.492188 366.988281 77.878906 369.273438 76.648438 L 373.425781 74.414062 L 377.828125 76.515625 C 380.253906 77.671875 385.1875 80.796875 388.796875 83.460938 C 392.40625 86.128906 397.785156 91.492188 400.75 95.378906 C 403.714844 99.265625 408.433594 106.636719 411.234375 111.757812 C 414.039062 116.875 417.746094 124.824219 419.476562 129.417969 C 421.207031 134.015625 423.457031 140.839844 424.476562 144.585938 C 425.496094 148.332031 426.871094 154.699219 427.53125 158.738281 C 428.191406 162.777344 429.015625 170.484375 429.367188 175.871094 C 429.761719 181.972656 429.269531 190.273438 428.058594 197.898438 C 426.988281 204.628906 425.726562 212.441406 425.089844 215.230469 C 423.820312 220.789062 423.988281 221.257812 425.613281 224.410156 C 426.710938 226.542969 428.785156 233.171875 430.773438 238.890625 C 432.761719 244.613281 435.050781 252.597656 435.859375 256.632812 C 436.667969 260.671875 437.910156 266.179688 438.617188 268.871094 C 439.324219 271.5625 439.90625 284.589844 439.910156 297.816406 C 439.914062 311.417969 439.269531 325.503906 438.421875 330.242188 C 437.597656 334.851562 435.859375 343.027344 434.554688 348.410156 C 433.246094 353.796875 431.011719 362.054688 429.582031 366.765625 C 428.152344 371.476562 426.515625 375.855469 425.949219 376.496094 C 425.382812 377.136719 424.921875 378.378906 424.921875 379.261719 C 424.921875 380.144531 423.886719 383.199219 422.617188 386.054688 C 421.351562 388.90625 419.59375 393.167969 418.714844 395.523438 C 417.835938 397.878906 414.445312 405.304688 411.183594 412.027344 L 405.253906 424.25 L 407.292969 425.742188 C 408.910156 426.921875 410.011719 426.90625 412.539062 425.667969 C 414.300781 424.808594 418.039062 423.382812 420.84375 422.5 C 423.652344 421.617188 431.636719 417.929688 438.589844 414.304688 C 445.542969 410.679688 457.332031 404.691406 464.789062 400.996094 C 473.96875 396.449219 482.070312 393.457031 489.875 391.722656 C 499.558594 389.574219 504.046875 389.265625 517.921875 389.800781 C 527.078125 390.152344 537.714844 391.304688 541.785156 392.390625 C 545.824219 393.46875 552.15625 395.527344 555.855469 396.964844 C 559.558594 398.402344 563.515625 401.074219 565.277344 401.988281 C 569.707031 404.289062 569.628906 404.542969 570.269531 403.828125 C 570.964844 403.0625 569.359375 404.945312 575.03125 397.726562 C 577.15625 395.019531 579.808594 390.785156 581.511719 388.734375 C 583.21875 386.679688 586.507812 382.550781 588.824219 379.554688 C 591.140625 376.558594 599.398438 367.726562 607.179688 359.929688 C 615.679688 351.402344 625.722656 342.804688 632.351562 338.371094 C 638.414062 334.316406 646.675781 329.351562 650.707031 327.332031 C 654.738281 325.316406 661.613281 322.535156 665.988281 321.148438 C 670.363281 319.761719 676.695312 318.039062 680.0625 317.316406 C 683.425781 316.59375 689.097656 315.445312 692.664062 314.769531 C 696.230469 314.089844 704.492188 313.539062 711.019531 313.546875 C 717.550781 313.550781 726.472656 314.09375 730.84375 314.757812 C 735.21875 315.417969 742.105469 316.578125 746.140625 317.339844 C 750.179688 318.097656 758.441406 320.347656 764.496094 322.335938 C 770.554688 324.324219 777.988281 327.054688 781.015625 328.410156 C 784.046875 329.761719 790.378906 333.144531 795.089844 335.925781 C 799.800781 338.707031 806.410156 343.171875 809.773438 345.847656 C 813.140625 348.523438 821.125 355.992188 827.519531 362.449219 C 834.882812 369.890625 842.535156 379.332031 848.402344 388.222656 C 853.496094 395.941406 859.203125 405.558594 861.078125 409.597656 C 862.957031 413.632812 866.121094 421.894531 868.109375 427.953125 C 870.097656 434.007812 872.792969 444.121094 874.097656 450.417969 C 875.398438 456.71875 876.183594 462.515625 876.195312 463.453125 C 876.222656 466.070312 876.367188 466.296875 874.765625 464.546875 C 874.089844 463.804688 869.476562 459.386719 865.089844 453.875 C 860.707031 448.367188 855.347656 442.070312 853.183594 439.882812 C 851.023438 437.695312 848.511719 436.113281 847.664062 435.90625 C 844.578125 435.148438 845.316406 435.550781 847.324219 440.496094 C 848.308594 442.917969 848.996094 445.632812 849.507812 446.308594 C 850.019531 446.980469 850.75 448.90625 851.128906 450.589844 C 851.507812 452.273438 852.988281 457.78125 854.421875 462.828125 C 855.851562 467.875 857.5625 475.035156 858.21875 478.734375 C 858.875 482.4375 860.203125 498.40625 861.175781 514.222656 C 862.144531 530.039062 862.953125 550.136719 862.972656 558.886719 C 862.992188 567.636719 863.839844 582.78125 864.859375 592.539062 C 865.875 602.296875 867.867188 617.132812 869.285156 625.507812 C 870.707031 633.878906 873.90625 646.820312 876.398438 654.261719 C 879.496094 663.511719 883.089844 671.140625 887.753906 678.355469 C 891.503906 684.164062 900.445312 696.753906 907.617188 706.328125 C 914.789062 715.90625 920.355469 724.046875 919.984375 724.417969 C 919.613281 724.789062 916.140625 724.394531 912.265625 723.539062 C 908.390625 722.683594 901.09375 720.609375 896.046875 718.929688 C 890.996094 717.246094 883.5625 714.371094 879.523438 712.53125 C 875.488281 710.691406 869.894531 707.585938 867.097656 705.625 C 864.300781 703.664062 858.0625 698.796875 853.234375 694.804688 C 847.007812 689.660156 844.179688 687.992188 843.511719 689.070312 C 842.996094 689.910156 842.839844 691.992188 843.167969 693.707031 C 843.492188 695.417969 845.824219 702.675781 848.339844 709.839844 C 850.859375 717.003906 853.6875 724.789062 854.621094 727.144531 C 855.558594 729.5 857.90625 734.183594 859.839844 737.546875 C 861.773438 740.914062 864.792969 745.867188 866.546875 748.558594 C 868.300781 751.25 874.691406 758.617188 880.75 764.929688 C 886.804688 771.246094 893.6875 777.695312 896.046875 779.269531 C 898.402344 780.839844 902.722656 783.820312 905.652344 785.894531 C 908.582031 787.96875 919.6875 794.027344 930.332031 799.355469 C 940.980469 804.6875 949.988281 809.527344 950.347656 810.113281 C 950.710938 810.699219 947.523438 811.820312 943.269531 812.601562 C 939.015625 813.386719 926.65625 814.027344 915.804688 814.027344 C 904.957031 814.027344 893.457031 813.425781 890.25 812.683594 C 887.042969 811.945312 880.703125 810.203125 876.160156 808.808594 C 871.621094 807.414062 868.179688 806.835938 867.546875 806.863281 C 866.664062 806.898438 866 806.972656 866.28125 807.183594 C 866.5625 807.394531 872.167969 812.496094 878.132812 817.164062 L 888.980469 825.652344 L 865.285156 826.042969 C 850.894531 826.277344 838.226562 825.863281 833.023438 824.992188 C 828.3125 824.199219 820.605469 822.746094 815.894531 821.757812 C 811.179688 820.773438 805.949219 819.683594 804.265625 819.335938 C 802.585938 818.984375 799.472656 817.925781 797.351562 816.976562 C 795.230469 816.027344 793.136719 815.253906 792.695312 815.253906 C 792.257812 815.253906 789.3125 814.148438 786.152344 812.796875 C 782.992188 811.445312 776.550781 808.324219 771.839844 805.863281 C 767.128906 803.40625 761.417969 799.96875 759.148438 798.226562 C 756.875 796.484375 750.539062 790.65625 745.0625 785.273438 C 739.589844 779.886719 734.011719 774.097656 732.671875 772.40625 C 731.332031 770.714844 728.769531 767.085938 726.980469 764.34375 C 725.191406 761.597656 721.4375 754.800781 718.644531 749.242188 C 715.847656 743.679688 711.875 734.09375 709.820312 727.9375 C 707.765625 721.78125 705.5625 714.542969 704.925781 711.851562 C 704.289062 709.15625 703.238281 704.203125 702.585938 700.835938 C 701.9375 697.472656 701.085938 691.414062 700.695312 687.375 C 700.304688 683.339844 699.597656 679.609375 699.117188 679.09375 C 698.640625 678.578125 696.609375 680.230469 694.601562 682.765625 C 692.59375 685.300781 690.058594 689.304688 688.964844 691.660156 C 687.871094 694.015625 685.835938 700.3125 684.4375 705.65625 C 683.039062 711 682.953125 718.613281 681.800781 722.175781 C 680.601562 725.882812 682.050781 727.917969 681.238281 727.507812 C 680.328125 727.050781 679.96875 726.648438 679.347656 725.921875 C 676.59375 722.691406 678.1875 722.367188 678.226562 729.070312 C 678.234375 730.800781 679.277344 736.722656 680.566406 742.226562 C 681.851562 747.730469 683.539062 755.8125 684.316406 760.1875 C 685.097656 764.5625 686.226562 770.34375 686.832031 773.035156 C 687.4375 775.726562 688.527344 781.234375 689.253906 785.273438 C 689.980469 789.308594 691.074219 795.09375 691.679688 798.121094 C 692.285156 801.148438 693.445312 807.757812 694.257812 812.804688 C 695.074219 817.851562 695.789062 828.316406 695.855469 836.054688 L 695.96875 850.128906 L 692.910156 855.578125 C 691.226562 858.578125 687.648438 862.527344 684.957031 864.351562 C 682.265625 866.179688 678.132812 868.003906 675.777344 868.410156 C 673.421875 868.816406 663.234375 869.730469 653.140625 870.441406 C 642.871094 871.164062 622.390625 871.417969 606.640625 871.011719 C 591.160156 870.617188 574.363281 869.539062 569.316406 868.621094 C 564.269531 867.699219 558.074219 866.082031 555.550781 865.023438 C 553.027344 863.96875 550.960938 862.246094 550.960938 861.203125 C 550.960938 860.160156 550.90625 858.894531 550.839844 858.386719 C 550.773438 857.882812 550.296875 854.597656 550.113281 852.714844 C 549.921875 850.8125 550.324219 852.398438 544.179688 852.71875 C 542.019531 852.832031 536.15625 852.402344 530.769531 851.445312 C 525.386719 850.488281 519.878906 849.304688 518.535156 848.816406 C 517.1875 848.328125 514.847656 846.8125 513.332031 845.449219 C 511.820312 844.085938 510.578125 842.53125 510.578125 841.992188 C 510.578125 841.453125 512.230469 837.402344 514.25 832.996094 C 516.269531 828.585938 517.921875 824.527344 517.921875 823.976562 C 517.921875 823.421875 518.6875 821.371094 519.625 819.417969 C 520.558594 817.460938 522.257812 813.660156 523.398438 810.96875 C 524.539062 808.277344 526.113281 805.183594 526.589844 803.949219 C 527.128906 802.550781 527.6875 801.003906 528.007812 800.027344 C 528.46875 798.621094 528.847656 797.320312 529.328125 795.921875 C 529.753906 794.683594 530.449219 792.460938 531.148438 790.777344 C 531.851562 789.09375 533.574219 783.863281 534.972656 779.152344 C 536.375 774.441406 538.105469 768.382812 538.816406 765.691406 C 539.53125 763 540.589844 759.144531 541.171875 757.125 C 541.757812 755.105469 542.882812 748.144531 543.671875 741.648438 C 544.464844 735.15625 544.796875 725.519531 544.40625 720.234375 C 544.019531 714.949219 543.191406 707.320312 542.570312 703.285156 C 541.945312 699.246094 541.058594 693.738281 540.589844 691.046875 C 540.125 688.355469 539.183594 684.5 538.5 682.480469 C 537.816406 680.460938 536.824219 677.707031 536.296875 676.363281 C 535.773438 675.015625 533.105469 669.128906 530.375 663.28125 C 527.640625 657.433594 519.894531 644.492188 513.160156 634.527344 C 505.953125 623.859375 496.464844 611.742188 490.097656 605.082031 C 481.199219 595.773438 478.632812 593.765625 475.65625 593.773438 C 473.664062 593.777344 465.3125 594.578125 457.101562 595.542969 C 448.890625 596.511719 433.835938 597.695312 423.648438 598.167969 L 405.125 599.03125 L 404.277344 601.316406 C 403.8125 602.574219 403.84375 607.308594 404.347656 611.839844 C 404.851562 616.367188 405.816406 625.304688 406.492188 631.699219 C 407.167969 638.089844 408.292969 649.65625 408.988281 657.394531 C 409.6875 665.136719 410.800781 681.929688 411.46875 694.71875 C 412.132812 707.503906 412.671875 725.953125 412.664062 735.710938 C 412.65625 745.46875 412.125 763.09375 411.488281 774.871094 C 410.847656 786.648438 409.730469 803.441406 409.007812 812.191406 C 408.28125 820.941406 407.125 833.058594 406.4375 839.113281 C 405.746094 845.171875 404.324219 852.878906 403.273438 856.246094 C 402.222656 859.609375 400.121094 864.03125 398.605469 866.066406 C 396.433594 868.980469 394.304688 870.085938 388.589844 871.265625 C 383.871094 872.242188 370.875 872.710938 351.425781 872.605469 C 334.976562 872.519531 317.113281 872 311.730469 871.453125 Z M 665.597656 679.507812 C 664.933594 675.953125 665.324219 674.394531 665.148438 672.910156 C 664.960938 671.347656 664.261719 666.09375 664.261719 662.050781 C 664.257812 656.375 663.402344 651.515625 664.636719 638.761719 C 665.5 629.828125 666.789062 620.039062 667.507812 617.011719 C 668.222656 613.984375 669.828125 608.441406 671.070312 604.695312 C 672.316406 600.949219 673.234375 596.949219 673.332031 595.820312 C 673.605469 592.613281 673.765625 592.671875 672.011719 593.570312 C 671.433594 593.867188 668.730469 594.925781 666.003906 596.34375 C 663.277344 597.765625 657.617188 599.335938 653.421875 599.835938 C 649.230469 600.332031 642.03125 600.328125 637.421875 599.824219 C 632.816406 599.324219 627.644531 597.585938 627.050781 596.992188 C 626.425781 596.367188 630.625 592.445312 635.730469 586.546875 C 640.597656 580.933594 645.175781 575.308594 645.90625 574.046875 C 646.640625 572.785156 648.0625 570.78125 649.070312 569.601562 C 650.078125 568.417969 651.996094 564.972656 653.332031 561.945312 C 654.667969 558.914062 656.410156 554.097656 657.203125 551.238281 C 658 548.375 659.238281 543.972656 659.964844 541.445312 C 660.703125 538.859375 661.035156 531.519531 660.722656 524.621094 C 660.417969 517.890625 659.628906 509.90625 658.96875 506.878906 C 658.308594 503.847656 656.980469 499.167969 656.011719 496.476562 C 655.042969 493.785156 652.347656 488.675781 650.023438 485.121094 C 647.582031 481.386719 642.960938 476.703125 639.070312 474.015625 C 635.367188 471.460938 630.6875 468.777344 628.667969 468.050781 C 626.648438 467.324219 622.460938 466.078125 619.363281 465.28125 C 616.265625 464.484375 612.425781 464.339844 610.796875 464.246094 C 605.972656 463.964844 607.542969 463.621094 608.027344 467.71875 C 608.226562 469.390625 608.882812 474.910156 609.726562 479.957031 C 610.574219 485.003906 611.523438 493.816406 611.835938 499.535156 C 612.148438 505.257812 611.757812 515.445312 610.96875 522.171875 C 610.179688 528.902344 608.441406 539.089844 607.105469 544.8125 C 605.769531 550.53125 603.523438 558.507812 602.113281 562.535156 C 600.703125 566.5625 598.535156 571.660156 597.292969 573.871094 C 596.054688 576.078125 594.703125 579.996094 594.289062 582.578125 L 593.539062 587.273438 L 604.007812 590.605469 C 610.078125 592.539062 616.761719 595.683594 619.910156 598.089844 C 623.316406 600.6875 627.628906 606.039062 631.480469 612.4375 C 634.859375 618.046875 641.023438 629.492188 645.179688 637.875 C 649.335938 646.253906 653.570312 655.3125 654.585938 658.003906 C 655.605469 660.695312 657.800781 667.027344 659.460938 672.078125 C 661.121094 677.125 662.976562 683.386719 664.230469 685.816406 C 665.574219 688.425781 667.230469 690.875 667.265625 690.371094 C 667.308594 689.769531 666.898438 688.222656 666.085938 683.292969 Z M 665.597656 679.507812 " fill-opacity="1" fill-rule="nonzero"/></svg>